<svg width="42" height="26" viewBox="0 0 42 26" fill="none" xmlns="http://www.w3.org/2000/svg">
<path d="M0.139893 0.229951H7.12989C9.00989 0.229951 10.3699 0.689951 11.2099 1.60995C12.0699 2.52995 12.4999 4.02995 12.4999 6.10995V7.24995C12.4999 9.70995 11.6199 11.18 9.85989 11.66C10.9399 11.94 11.6999 12.59 12.1399 13.61C12.5799 14.63 12.7999 15.98 12.7999 17.66C12.7999 20.4 12.3899 22.48 11.5699 23.9C10.7499 25.3 9.26989 26 7.12989 26H0.139893V0.229951ZM6.22989 9.91995C6.66989 9.91995 6.96989 9.75995 7.12989 9.43995C7.28989 9.09995 7.36989 8.62995 7.36989 8.02995V5.44995C7.36989 4.60995 6.99989 4.18995 6.25989 4.18995H5.17989V9.91995H6.22989ZM5.68989 21.47C7.02989 21.47 7.69989 20.8299 7.69989 19.5499V16.34C7.69989 15.56 7.57989 14.97 7.33989 14.57C7.11989 14.17 6.71989 13.97 6.13989 13.97H5.17989V21.44L5.68989 21.47Z" fill="#FAFFAF"/>
<path d="M13.7454 26L16.5054 12.32L14.3154 0.199951H19.3554L20.7054 9.07995L21.8754 0.199951H26.9454L24.7254 12.32L27.4854 26H22.2654L20.6454 15.92L18.9954 26H13.7454Z" fill="#FAFFAF"/>
<path d="M29.0266 0.229951H35.8366C37.8966 0.229951 39.3666 0.89995 40.2466 2.23995C41.1266 3.55995 41.5666 5.49995 41.5666 8.05995C41.5666 10.6199 41.1766 12.5499 40.3966 13.8499C39.6166 15.15 38.2166 15.8 36.1966 15.8H34.0966V26H29.0266V0.229951ZM34.3966 11.15C35.0166 11.15 35.4666 11.04 35.7466 10.82C36.0466 10.58 36.2366 10.2499 36.3166 9.82995C36.4166 9.38995 36.4666 8.76995 36.4666 7.96995C36.4666 6.88995 36.3466 6.10995 36.1066 5.62995C35.8666 5.14995 35.3866 4.90995 34.6666 4.90995H34.0966V11.15H34.3966Z" fill="#FAFFAF"/>
</svg>
