<svg width="49" height="35" viewBox="0 0 49 35" fill="none" xmlns="http://www.w3.org/2000/svg">
<path d="M48.3943 6.55807L46.1161 5.04677C46.0766 5.02049 46.0318 5.01037 45.9888 4.99377C45.9592 4.98228 45.9332 4.96481 45.9021 4.95771C45.8171 4.9382 45.7302 4.93376 45.6455 4.94759C45.645 4.94769 45.6445 4.94745 45.644 4.94755L42.4086 5.48299V2.27873C42.4086 2.10508 42.3261 1.94022 42.1831 1.82878C41.4206 1.23342 40.1884 0.918945 38.6201 0.918945C36.556 0.918945 34.0589 1.44904 31.5888 2.41116C28.1565 3.74991 25.5013 5.61718 24.3365 7.43136C23.1817 5.63474 20.5182 3.75625 17.0693 2.41116C14.5996 1.44904 12.103 0.918945 10.0388 0.918945C8.47052 0.918945 7.23833 1.23342 6.47542 1.82878C6.33288 1.94022 6.25038 2.10508 6.25038 2.27873V5.48299L3.01492 4.94755C3.0143 4.94745 3.01374 4.94774 3.01313 4.94764C2.92803 4.93376 2.84078 4.93834 2.75552 4.95804C2.72821 4.96434 2.70565 4.98013 2.67946 4.98972C2.633 5.00684 2.58491 5.01848 2.54238 5.04677L0.264244 6.55807C0.0984279 6.66798 0 6.84583 0 7.03588V28.2563C0 28.5406 0.218502 28.7841 0.51787 28.8333L21.4863 32.3037V33.7859C21.4863 34.1095 21.7673 34.3721 22.1136 34.3721H26.5453C26.8917 34.3721 27.1726 34.1095 27.1726 33.7859V32.3037L48.1407 28.8333C48.44 28.7841 48.6585 28.5406 48.6585 28.2563V7.03588C48.6585 6.84583 48.5601 6.66798 48.3943 6.55807ZM45.1262 6.22375V25.0524L25.2311 28.3457C26.0086 26.9008 28.3854 24.9516 32.0728 23.514C34.3902 22.6084 36.7153 22.1096 38.6205 22.1096C39.8727 22.1096 40.8525 22.3351 41.3802 22.745C41.5668 22.8908 41.8274 22.9213 42.0475 22.8251C42.2681 22.7286 42.4086 22.5217 42.4086 22.2943V6.67333L45.1262 6.22375ZM32.072 3.49349C34.3926 2.58939 36.7181 2.09135 38.6201 2.09135C39.7114 2.09135 40.596 2.26308 41.1539 2.57946V21.3031C39.0265 20.5574 35.2356 21.0066 31.5892 22.432C28.6724 23.5693 26.3135 25.0874 24.9562 26.6144L24.9537 9.12871C25.1037 7.68424 27.6498 5.21808 32.072 3.49349ZM7.50503 2.57946C8.06292 2.26308 8.94714 2.09135 10.0388 2.09135C11.9408 2.09135 14.2663 2.58939 16.5861 3.49349C21.0089 5.21813 23.5549 7.68429 23.7019 9.07232V26.6137C22.3448 25.0871 19.9858 23.5693 17.0701 22.4324C14.6033 21.468 12.1058 20.9372 10.038 20.9372C9.04884 20.9372 8.19321 21.0619 7.50503 21.3031V2.57946ZM3.53279 6.22375L6.25038 6.67333V22.2943C6.25038 22.5217 6.39087 22.7286 6.61142 22.8251C6.83074 22.9213 7.09171 22.8908 7.27877 22.745C7.80603 22.3351 8.78623 22.1096 10.038 22.1096C11.9433 22.1096 14.2688 22.6084 16.5865 23.5144C20.2733 24.9517 22.6499 26.9008 23.4274 28.3457L3.53279 25.0524V6.22375H3.53279ZM47.4039 27.7647L26.4359 31.2353C26.4121 31.2393 26.3939 31.2528 26.3712 31.2591C26.3298 31.2705 26.2912 31.2834 26.2538 31.3021C26.2182 31.3199 26.187 31.3402 26.1562 31.3636C26.1248 31.3874 26.0968 31.4119 26.0708 31.4408C26.045 31.4696 26.0243 31.4995 26.0048 31.5324C25.9852 31.5651 25.9692 31.5976 25.9566 31.6338C25.9436 31.6708 25.9369 31.7079 25.932 31.7474C25.9293 31.7697 25.918 31.7893 25.918 31.8124V33.1996H22.7409V31.8124C22.7409 31.7893 22.7297 31.7697 22.7269 31.7474C22.7221 31.7079 22.7153 31.6708 22.7023 31.6338C22.6897 31.5976 22.6737 31.5651 22.6542 31.5324C22.6347 31.4995 22.6139 31.4696 22.5881 31.4408C22.5622 31.4119 22.5341 31.3874 22.5027 31.3636C22.4719 31.3402 22.4408 31.3199 22.4051 31.3021C22.3677 31.2834 22.3292 31.2705 22.2877 31.2591C22.2651 31.2528 22.2469 31.2393 22.2231 31.2353L1.25465 27.7647V7.33853L2.27814 6.65949V25.5439C2.27814 25.8283 2.49664 26.0717 2.79601 26.121L24.2198 29.6672C24.2559 29.6735 24.2915 29.6759 24.3268 29.6761C24.3274 29.6761 24.3279 29.6763 24.3284 29.6763C24.3287 29.6763 24.329 29.6763 24.3293 29.6763C24.3295 29.6763 24.3298 29.6763 24.3301 29.6763C24.3306 29.6763 24.3312 29.6761 24.3317 29.6761C24.367 29.6759 24.4027 29.6735 24.4387 29.6672L45.8629 26.121C46.1623 26.0717 46.3808 25.8283 46.3808 25.5439V6.65978L47.4039 7.33853V27.7647Z" fill="#faffaf"/>
</svg>
