<svg width="64" height="64" viewBox="0 0 64 64" fill="none" xmlns="http://www.w3.org/2000/svg">
<rect width="64" height="64" fill="black"/>
<path d="M6 15.0384H14.9428C17.348 15.0384 19.0879 15.6267 20.1626 16.8035C21.2629 17.9802 21.813 19.8988 21.813 22.5593V24.0174C21.813 27.164 20.6871 29.0442 18.4355 29.6581C19.8172 30.0163 20.7895 30.8477 21.3524 32.1523C21.9153 33.457 22.1968 35.1837 22.1968 37.3326C22.1968 40.8372 21.6723 43.4977 20.6232 45.314C19.5741 47.1047 17.6806 48 14.9428 48H6V15.0384ZM13.7913 27.4326C14.3543 27.4326 14.7381 27.2279 14.9428 26.8186C15.1475 26.3837 15.2498 25.7826 15.2498 25.0151V21.7151C15.2498 20.6407 14.7765 20.1035 13.8297 20.1035H12.448V27.4326H13.7913ZM13.1005 42.2058C14.8148 42.2058 15.672 41.3872 15.672 39.75V35.6442C15.672 34.6465 15.5185 33.8919 15.2114 33.3802C14.93 32.8686 14.4182 32.6128 13.6762 32.6128H12.448V42.1674L13.1005 42.2058Z" fill="#FFF4CC"/>
<path d="M23.4064 48L26.9375 30.5023L24.1356 15H30.5836L32.3108 26.3581L33.8077 15H40.294L37.4539 30.5023L40.9849 48H34.3066L32.234 35.107L30.1231 48H23.4064Z" fill="#FFF4CC"/>
<path d="M42.9567 15.0384H51.6692C54.3047 15.0384 56.1854 15.8953 57.3112 17.6093C58.4371 19.2977 59 21.7791 59 25.0535C59 28.3279 58.5011 30.7965 57.5031 32.4593C56.5052 34.1221 54.7141 34.9535 52.1298 34.9535H49.4431V48H42.9567V15.0384ZM49.8269 29.0058C50.6201 29.0058 51.1959 28.8651 51.5541 28.5837C51.9379 28.2767 52.181 27.8546 52.2833 27.3174C52.4113 26.7546 52.4752 25.9616 52.4752 24.9384C52.4752 23.557 52.3217 22.5593 52.0147 21.9453C51.7076 21.3314 51.0935 21.0244 50.1724 21.0244H49.4431V29.0058H49.8269Z" fill="#FFF4CC"/>
</svg>
