<svg width="17" height="17" viewBox="0 0 17 17" fill="none" xmlns="http://www.w3.org/2000/svg">
<g clip-path="url(#clip0)">
<path d="M8.41406 0C7.25781 0 6.16797 0.218748 5.14453 0.65625C4.12109 1.09375 3.22657 1.69531 2.46094 2.46094C1.69531 3.22657 1.09375 4.12109 0.65625 5.14453C0.218748 6.16797 0 7.25781 0 8.41406C0 9.33594 0.14453 10.2187 0.433594 11.0625C0.722658 11.9063 1.12109 12.6797 1.62891 13.3828C2.13672 14.0859 2.74218 14.6953 3.44531 15.2109C4.14844 15.7266 4.92187 16.125 5.76562 16.4062C5.96875 16.4375 6.11328 16.4023 6.19922 16.3008C6.28516 16.1992 6.32812 16.0938 6.32812 15.9844C6.32812 15.8906 6.32812 15.6953 6.32812 15.3984C6.32812 15.1016 6.32812 14.7813 6.32812 14.4375C5.15624 14.6875 4.39063 14.582 4.03125 14.1211C3.67187 13.6602 3.49219 13.4297 3.49219 13.4297C3.28906 12.9453 3.08203 12.6211 2.87109 12.457C2.66015 12.293 2.55469 12.2109 2.55469 12.2109C2.16406 11.9453 2.07422 11.793 2.28516 11.7539C2.4961 11.7148 2.60156 11.6953 2.60156 11.6953C3.02344 11.7266 3.34375 11.8789 3.5625 12.1523C3.78125 12.4258 3.89062 12.5625 3.89062 12.5625C4.26563 13.2031 4.70703 13.5078 5.21484 13.4766C5.72266 13.4453 6.10156 13.375 6.35156 13.2656C6.38281 12.9844 6.44922 12.75 6.55078 12.5625C6.65234 12.375 6.75781 12.2344 6.86719 12.1406C5.94531 12.0312 5.07813 11.7109 4.26562 11.1797C3.45312 10.6484 3.04688 9.57813 3.04688 7.96875C3.04688 7.51562 3.125 7.10156 3.28125 6.72656C3.4375 6.35156 3.64844 6.01563 3.91406 5.71875C3.86719 5.60937 3.8125 5.35547 3.75 4.95703C3.6875 4.55859 3.76562 4.07032 3.98438 3.49219C3.98438 3.49219 4.17187 3.5 4.54688 3.51562C4.92188 3.53125 5.50781 3.8125 6.30469 4.35938C6.64844 4.26562 6.99609 4.19531 7.34766 4.14844C7.69922 4.10156 8.05469 4.07812 8.41406 4.07812C8.77344 4.07812 9.1289 4.10156 9.48047 4.14844C9.83203 4.19531 10.1797 4.26562 10.5234 4.35938C11.3203 3.8125 11.9062 3.53125 12.2812 3.51562C12.6563 3.5 12.8438 3.49219 12.8438 3.49219C13.0625 4.07032 13.1406 4.55859 13.0781 4.95703C13.0156 5.35547 12.9609 5.60937 12.9141 5.71875C13.1797 6.01563 13.3906 6.35156 13.5469 6.72656C13.7031 7.10156 13.7812 7.51562 13.7812 7.96875C13.7812 9.59376 13.375 10.668 12.5625 11.1914C11.75 11.7148 10.875 12.0234 9.9375 12.1172C10.0938 12.2578 10.2266 12.457 10.3359 12.7148C10.4453 12.9727 10.5 13.2969 10.5 13.6875C10.5 14.25 10.5 14.7422 10.5 15.1641C10.5 15.5859 10.5 15.8594 10.5 15.9844C10.5 16.1094 10.543 16.2188 10.6289 16.3125C10.7148 16.4062 10.8672 16.4375 11.0859 16.4062C11.9141 16.125 12.6797 15.7227 13.3828 15.1992C14.0859 14.6758 14.6914 14.0664 15.1992 13.3711C15.707 12.6758 16.1055 11.9063 16.3945 11.0625C16.6836 10.2187 16.8281 9.33594 16.8281 8.41406C16.8281 7.25781 16.6094 6.16797 16.1719 5.14453C15.7344 4.12109 15.1328 3.22657 14.3672 2.46094C13.6016 1.69531 12.707 1.09375 11.6836 0.65625C10.6602 0.218748 9.57032 0 8.41406 0Z" fill="#faffaf"/>
</g>
<defs>
<clipPath id="clip0">
<rect width="16.8281" height="16.4062" fill="white"/>
</clipPath>
</defs>
</svg>
