<svg width="21" height="22" viewBox="0 0 21 22" fill="none" xmlns="http://www.w3.org/2000/svg">
<path d="M10.4977 5.11214C9.75043 5.11214 9.04877 5.24883 8.39266 5.52221C7.73656 5.81381 7.16703 6.20109 6.68406 6.68406C6.20109 7.16703 5.81381 7.73656 5.52221 8.39266C5.24883 9.04877 5.11214 9.75043 5.11214 10.4977C5.11214 11.2449 5.24883 11.9466 5.52221 12.6027C5.81381 13.2588 6.20109 13.8283 6.68406 14.3113C7.16703 14.7942 7.73656 15.1815 8.39266 15.4731C9.04877 15.7465 9.75043 15.8832 10.4977 15.8832C11.2449 15.8832 11.9466 15.7465 12.6027 15.4731C13.2588 15.1815 13.8283 14.7942 14.3113 14.3113C14.7942 13.8283 15.1815 13.2588 15.4731 12.6027C15.7465 11.9466 15.8832 11.2449 15.8832 10.4977C15.8832 9.75043 15.7465 9.04877 15.4731 8.39266C15.1815 7.73656 14.7942 7.16703 14.3113 6.68406C13.8283 6.20109 13.2588 5.81381 12.6027 5.52221C11.9466 5.24883 11.2449 5.11214 10.4977 5.11214ZM10.4977 13.9969C9.53173 13.9969 8.70705 13.6552 8.0236 12.9717C7.34016 12.2883 6.99844 11.4636 6.99844 10.4977C6.99844 9.53173 7.34016 8.70705 8.0236 8.0236C8.70705 7.34016 9.53173 6.99844 10.4977 6.99844C11.4636 6.99844 12.2883 7.34016 12.9717 8.0236C13.6552 8.70705 13.9969 9.53173 13.9969 10.4977C13.9969 11.4636 13.6552 12.2883 12.9717 12.9717C12.2883 13.6552 11.4636 13.9969 10.4977 13.9969ZM17.3594 4.89344C17.3594 4.54716 17.2364 4.25556 16.9904 4.01864C16.7443 3.78171 16.4482 3.66325 16.1019 3.66325C15.7556 3.66325 15.4595 3.78171 15.2134 4.01864C14.9674 4.25556 14.8444 4.54716 14.8444 4.89344C14.8444 5.25795 14.9674 5.55866 15.2134 5.79558C15.4595 6.03251 15.7556 6.15097 16.1019 6.15097C16.4482 6.15097 16.7443 6.03251 16.9904 5.79558C17.2364 5.55866 17.3594 5.25795 17.3594 4.89344ZM20.4486 3.63591C20.1752 2.92513 19.7697 2.30092 19.232 1.76328C18.6944 1.22564 18.0793 0.820131 17.3868 0.546753C16.9676 0.400951 16.5438 0.287046 16.1156 0.205032C15.6873 0.123019 15.2544 0.0820124 14.817 0.0820124C14.2703 0.0455622 13.7691 0.0227811 13.3134 0.0136691C12.8578 0.00455598 11.9192 0 10.4977 0C9.0761 0 8.13751 0.00455598 7.68188 0.0136691C7.22625 0.0227811 6.72507 0.0455622 6.17831 0.0820124C5.74091 0.0820124 5.30807 0.123019 4.87977 0.205032C4.45148 0.287046 4.03686 0.400951 3.63591 0.546753C2.92513 0.820131 2.30092 1.22564 1.76328 1.76328C1.22564 2.30092 0.820131 2.92513 0.546753 3.63591C0.400951 4.03686 0.287046 4.45148 0.205032 4.87977C0.123019 5.30806 0.0729004 5.74091 0.0546753 6.17831C0.0364502 6.74329 0.0227811 7.24903 0.0136691 7.69555C0.00455599 8.14207 0 9.0761 0 10.4977C0 11.9192 0.00455599 12.8578 0.0136691 13.3134C0.0227811 13.7691 0.0364502 14.2794 0.0546753 14.8443C0.0729004 15.2818 0.123019 15.71 0.205032 16.1292C0.287046 16.5484 0.400951 16.9676 0.546753 17.3868C0.820131 18.0975 1.22564 18.7172 1.76328 19.2457C2.30092 19.7742 2.92513 20.1752 3.63591 20.4486C4.03686 20.6126 4.45148 20.7402 4.87977 20.8313C5.30807 20.9224 5.74091 20.968 6.17831 20.968C6.74329 21.0044 7.24904 21.0272 7.69555 21.0363C8.14207 21.0454 9.0761 21.05 10.4977 21.05C11.9192 21.05 12.8578 21.0454 13.3134 21.0363C13.7691 21.0272 14.2794 21.0044 14.8444 20.968C15.2635 20.968 15.6873 20.927 16.1156 20.845C16.5438 20.763 16.9676 20.649 17.3868 20.5032C18.0975 20.2299 18.7172 19.8244 19.2457 19.2867C19.7742 18.7491 20.1752 18.1249 20.4486 17.4141C20.6126 17.0131 20.7356 16.5985 20.8176 16.1702C20.8996 15.7419 20.9407 15.3091 20.9407 14.8717C20.9589 14.3067 20.9725 13.801 20.9817 13.3544C20.9908 12.9079 20.9953 11.9739 20.9953 10.5523C20.9953 9.11255 20.9953 8.16941 20.9953 7.72289C20.9953 7.27637 20.9771 6.77063 20.9407 6.20565C20.9407 5.76824 20.8996 5.33085 20.8176 4.89344C20.7356 4.45604 20.6126 4.03686 20.4486 3.63591ZM19.027 14.735C19.027 15.0813 18.9951 15.4184 18.9313 15.7465C18.8675 16.0745 18.781 16.3935 18.6716 16.7033C18.4894 17.1772 18.2251 17.5872 17.8788 17.9335C17.5326 18.2798 17.1316 18.5349 16.676 18.699C16.3661 18.8265 16.0472 18.9177 15.7192 18.9723C15.3911 19.027 15.0631 19.0635 14.735 19.0817C14.17 19.0999 13.6734 19.1136 13.2451 19.1227C12.8168 19.1318 11.8919 19.1364 10.4703 19.1364C9.04876 19.1364 8.12385 19.1318 7.69555 19.1227C7.26726 19.1136 6.77063 19.0999 6.20565 19.0817C5.85937 19.0817 5.52677 19.0498 5.20783 18.986C4.88889 18.9222 4.56539 18.8265 4.23734 18.699C3.78171 18.5349 3.38076 18.2798 3.03448 17.9335C2.6882 17.5872 2.42394 17.1772 2.24169 16.7033C2.13234 16.3935 2.04577 16.0745 1.98198 15.7465C1.91819 15.4184 1.8863 15.0904 1.8863 14.7623C1.84985 14.2156 1.83162 13.7235 1.83162 13.2861C1.83162 12.8487 1.83162 11.9192 1.83162 10.4977C1.83162 9.0761 1.83162 8.15118 1.83162 7.72289C1.83162 7.2946 1.84985 6.79797 1.8863 6.23299C1.8863 5.90493 1.91819 5.57688 1.98198 5.24883C2.04577 4.92078 2.13234 4.59273 2.24169 4.26468C2.42394 3.80905 2.6882 3.4081 3.03448 3.06182C3.38076 2.71554 3.78171 2.45128 4.23734 2.26903C4.56539 2.15967 4.88889 2.07311 5.20783 2.00932C5.52677 1.94553 5.85937 1.91364 6.20565 1.91364C6.75241 1.89541 7.24448 1.88174 7.68188 1.87263C8.11929 1.86352 9.04876 1.85896 10.4703 1.85896C11.8919 1.85896 12.8168 1.85896 13.2451 1.85896C13.6734 1.85896 14.17 1.87719 14.735 1.91364C15.0631 1.91364 15.3911 1.94553 15.7192 2.00932C16.0472 2.07311 16.3661 2.15967 16.676 2.26903C17.1316 2.45128 17.5326 2.71554 17.8788 3.06182C18.2251 3.4081 18.4894 3.80905 18.6716 4.26468C18.781 4.59273 18.8675 4.91622 18.9313 5.23516C18.9951 5.5541 19.027 5.88671 19.027 6.23299C19.0452 6.77974 19.0589 7.27182 19.068 7.70922C19.0771 8.14663 19.0817 9.0761 19.0817 10.4977C19.0817 11.9192 19.0817 12.8441 19.0817 13.2724C19.0817 13.7007 19.0726 14.1882 19.0544 14.735H19.027Z" fill="#FAFFAF"/>
</svg>
