<svg width="109" height="36" viewBox="0 0 109 36" fill="none" xmlns="http://www.w3.org/2000/svg">
<path d="M55.49 22.8854L60.3548 16.247L55.6167 9.81128H58.0491L60.0254 12.5731L61.5963 14.7521H61.6977L63.2179 12.5731L65.1689 9.81128H67.4999L62.7112 16.2217L67.6266 22.8854H65.1942L62.9899 19.8196L61.495 17.7419H61.3936L59.9494 19.8196L57.821 22.8854H55.49Z" fill="#FAFFAF"/>
<path d="M99.1593 20.4746C99.0574 20.4399 98.9496 20.4258 98.8421 20.433C98.7347 20.4401 98.6297 20.4684 98.5333 20.5163C98.4368 20.5641 98.3508 20.6306 98.2801 20.7118C98.2094 20.793 98.1554 20.8874 98.1213 20.9895C97.6104 22.3068 96.7029 23.4327 95.5242 24.2117C94.3455 24.9907 92.9538 25.3842 91.5417 25.3377C90.1365 25.3756 88.7539 24.9781 87.5834 24.1997C86.4128 23.4213 85.5116 22.3 85.003 20.9895C84.9337 20.7835 84.7853 20.6136 84.5907 20.517C84.396 20.4205 84.1709 20.4052 83.965 20.4746C83.7591 20.5439 83.5891 20.6923 83.4926 20.8869C83.396 21.0816 83.3807 21.3066 83.4501 21.5126C84.0844 23.137 85.1985 24.5296 86.6441 25.5049C88.0896 26.4803 89.798 26.9922 91.5417 26.9724C93.2993 27.009 95.0257 26.505 96.4875 25.5285C97.9493 24.552 99.0759 23.1502 99.7151 21.5126C99.7489 21.408 99.7613 21.2976 99.7515 21.1882C99.7416 21.0787 99.7098 20.9723 99.6579 20.8754C99.606 20.7785 99.5351 20.693 99.4495 20.6242C99.3638 20.5553 99.2651 20.5044 99.1593 20.4746Z" fill="#FAFFAF"/>
<path d="M91.5418 0C88.147 0 84.8285 1.00666 82.0059 2.89267C79.1833 4.77868 76.9833 7.45934 75.6842 10.5957C74.3851 13.732 74.0452 17.1831 74.7075 20.5126C75.3698 23.8421 77.0045 26.9005 79.4049 29.3009C81.8054 31.7014 84.8637 33.3361 88.1932 33.9984C91.5227 34.6606 94.9739 34.3207 98.1102 33.0216C101.247 31.7225 103.927 29.5225 105.813 26.6999C107.699 23.8773 108.706 20.5588 108.706 17.1641C108.706 12.6119 106.897 8.24613 103.679 5.02724C100.46 1.80835 96.094 0 91.5418 0ZM91.5418 32.6935C88.4703 32.6935 85.4679 31.7827 82.9141 30.0763C80.3603 28.3699 78.3699 25.9445 77.1945 23.1069C76.0191 20.2693 75.7116 17.1468 76.3108 14.1344C76.91 11.122 78.389 8.35496 80.5608 6.18313C82.7326 4.0113 85.4997 2.53227 88.5121 1.93307C91.5245 1.33386 94.647 1.6414 97.4846 2.81678C100.322 3.99216 102.748 5.98261 104.454 8.5364C106.16 11.0902 107.071 14.0927 107.071 17.1641C107.071 21.2827 105.435 25.2327 102.523 28.145C99.6104 31.0574 95.6604 32.6935 91.5418 32.6935Z" fill="#FAFFAF"/>
<path d="M85.4117 11.4428C86.5396 11.4428 87.455 12.7832 87.455 13.8948C87.455 14.1116 87.5411 14.3195 87.6944 14.4727C87.8477 14.626 88.0556 14.7121 88.2723 14.7121C88.4891 14.7121 88.697 14.626 88.8503 14.4727C89.0036 14.3195 89.0897 14.1116 89.0897 13.8948C89.0897 11.9659 87.5204 9.80811 85.4117 9.80811C83.3029 9.80811 81.7336 11.9659 81.7336 13.8948C81.7336 14.1116 81.8198 14.3195 81.973 14.4727C82.1263 14.626 82.3342 14.7121 82.551 14.7121C82.7678 14.7121 82.9756 14.626 83.1289 14.4727C83.2822 14.3195 83.3683 14.1116 83.3683 13.8948C83.3683 12.7832 84.2837 11.4428 85.4117 11.4428Z" fill="#FAFFAF"/>
<path d="M97.6717 9.80811C95.5629 9.80811 93.9937 11.9659 93.9937 13.8948C93.9937 14.1116 94.0798 14.3195 94.233 14.4727C94.3863 14.626 94.5942 14.7121 94.811 14.7121C95.0278 14.7121 95.2357 14.626 95.3889 14.4727C95.5422 14.3195 95.6283 14.1116 95.6283 13.8948C95.6283 12.7832 96.5437 11.4428 97.6717 11.4428C98.7996 11.4428 99.715 12.7832 99.715 13.8948C99.715 14.1116 99.8011 14.3195 99.9544 14.4727C100.108 14.626 100.316 14.7121 100.532 14.7121C100.749 14.7121 100.957 14.626 101.11 14.4727C101.264 14.3195 101.35 14.1116 101.35 13.8948C101.35 11.9659 99.7804 9.80811 97.6717 9.80811Z" fill="#FAFFAF"/>
<path d="M47.2894 6.71434L45.0633 5.13394C45.0247 5.10646 44.9808 5.09588 44.9388 5.07852C44.9099 5.0665 44.8845 5.04824 44.8542 5.04081C44.7711 5.0204 44.6861 5.01576 44.6033 5.03023C44.6029 5.03033 44.6024 5.03008 44.6019 5.03018L41.4403 5.5901V2.23934C41.4403 2.05776 41.3597 1.88535 41.22 1.76881C40.4749 1.14623 39.2709 0.817383 37.7384 0.817383C35.7214 0.817383 33.2813 1.37172 30.8676 2.37783C27.5137 3.77778 24.9191 5.73043 23.7808 7.62756C22.6524 5.74879 20.0498 3.78442 16.6796 2.37783C14.2663 1.37172 11.8266 0.817383 9.80964 0.817383C8.27713 0.817383 7.07308 1.14623 6.32758 1.76881C6.18829 1.88535 6.10768 2.05776 6.10768 2.23934V5.5901L2.94608 5.03018C2.94549 5.03008 2.94494 5.03038 2.94434 5.03028C2.86118 5.01576 2.77592 5.02055 2.69261 5.04116C2.66592 5.04774 2.64387 5.06425 2.61828 5.07428C2.57289 5.09219 2.52589 5.10436 2.48434 5.13394L0.258211 6.71434C0.0961808 6.82928 0 7.01526 0 7.214V29.4046C0 29.7019 0.213513 29.9566 0.506047 30.008L20.9957 33.6371V35.187C20.9957 35.5255 21.2703 35.8 21.6087 35.8H25.9393C26.2777 35.8 26.5523 35.5255 26.5523 35.187V33.6371L47.0416 30.008C47.3341 29.9566 47.5476 29.7019 47.5476 29.4046V7.214C47.5476 7.01526 47.4514 6.82928 47.2894 6.71434ZM44.0959 6.36474V26.0543L24.6551 29.4982C25.4148 27.9872 27.7373 25.9489 31.3406 24.4455C33.605 23.4985 35.877 22.9769 37.7388 22.9769C38.9624 22.9769 39.9198 23.2127 40.4354 23.6414C40.6178 23.7938 40.8724 23.8257 41.0875 23.7252C41.3031 23.6242 41.4403 23.4079 41.4403 23.17V6.83487L44.0959 6.36474ZM31.3398 3.50965C33.6074 2.5642 35.8798 2.04339 37.7384 2.04339C38.8048 2.04339 39.6692 2.22298 40.2143 2.55382V22.1336C38.1355 21.3538 34.4311 21.8235 30.868 23.3141C28.0178 24.5034 25.7127 26.0909 24.3865 27.6877L24.384 9.40251C24.5306 7.89201 27.0185 5.31309 31.3398 3.50965ZM7.33368 2.55382C7.87884 2.22298 8.74287 2.04339 9.80964 2.04339C11.6682 2.04339 13.9406 2.5642 16.2075 3.50965C20.5292 5.31314 23.0171 7.89206 23.1608 9.34355V27.6869C21.8346 26.0906 19.5295 24.5034 16.6804 23.3145C14.2699 22.306 11.8294 21.7509 9.80884 21.7509C8.84225 21.7509 8.00615 21.8814 7.33368 22.1336V2.55382ZM3.45213 6.36474L6.10768 6.83487V23.17C6.10768 23.4079 6.24497 23.6242 6.46047 23.7252C6.67479 23.8257 6.9298 23.7938 7.11259 23.6414C7.62781 23.2127 8.58563 22.9769 9.80884 22.9769C11.6706 22.9769 13.943 23.4985 16.2079 24.4459C19.8104 25.9489 22.1328 27.9872 22.8926 29.4982L3.45213 26.0543V6.36474H3.45213ZM46.3216 28.8906L25.8323 32.5199C25.8091 32.524 25.7913 32.5382 25.7692 32.5447C25.7287 32.5567 25.691 32.5702 25.6544 32.5898C25.6196 32.6084 25.5892 32.6296 25.559 32.6541C25.5284 32.6789 25.501 32.7045 25.4756 32.7347C25.4504 32.7649 25.4301 32.7961 25.4111 32.8305C25.392 32.8647 25.3763 32.8987 25.364 32.9366C25.3513 32.9753 25.3447 33.0141 25.34 33.0554C25.3373 33.0787 25.3263 33.0992 25.3263 33.1233V34.574H22.2218V33.1233C22.2218 33.0992 22.2107 33.0787 22.208 33.0554C22.2033 33.0141 22.1967 32.9753 22.184 32.9366C22.1717 32.8987 22.156 32.8647 22.1369 32.8305C22.1179 32.7961 22.0976 32.7649 22.0724 32.7347C22.047 32.7045 22.0197 32.6789 21.989 32.6541C21.9588 32.6296 21.9284 32.6084 21.8936 32.5898C21.857 32.5702 21.8194 32.5567 21.7789 32.5447C21.7568 32.5382 21.739 32.524 21.7157 32.5199L1.22601 28.8906V7.53048L2.22613 6.8204V26.5683C2.22613 26.8656 2.43964 27.1202 2.73217 27.1717L23.6669 30.8801C23.7021 30.8866 23.7369 30.8891 23.7714 30.8893C23.772 30.8893 23.7725 30.8896 23.773 30.8896C23.7733 30.8896 23.7736 30.8896 23.7738 30.8896C23.7741 30.8896 23.7744 30.8896 23.7746 30.8896C23.7752 30.8896 23.7757 30.8893 23.7762 30.8893C23.8107 30.8891 23.8455 30.8866 23.8808 30.8801L44.8158 27.1717C45.1084 27.1202 45.3219 26.8656 45.3219 26.5683V6.8207L46.3216 7.53048V28.8906Z" fill="#FAFFAF"/>
</svg>
