<svg width="20" height="16" viewBox="0 0 20 16" fill="none" xmlns="http://www.w3.org/2000/svg">
<path d="M17.6484 3.98438C17.6484 4.07812 17.6484 4.16797 17.6484 4.25391C17.6484 4.33984 17.6484 4.42969 17.6484 4.52344C17.6484 5.85157 17.3984 7.19531 16.8984 8.55469C16.3984 9.91407 15.6641 11.1445 14.6953 12.2461C13.7266 13.3477 12.5313 14.2422 11.1094 14.9297C9.68749 15.6328 8.04688 15.9844 6.1875 15.9844C5.04687 15.9844 3.95313 15.8242 2.90625 15.5039C1.85937 15.1836 0.890629 14.7344 0 14.1562C0.171876 14.1875 0.335937 14.2031 0.492188 14.2031C0.648438 14.2031 0.812499 14.2031 0.984375 14.2031C1.92188 14.2031 2.8164 14.0547 3.66797 13.7578C4.51954 13.4609 5.28906 13.0391 5.97656 12.4922C5.10156 12.4766 4.32032 12.207 3.63281 11.6836C2.94531 11.1602 2.46875 10.5 2.20312 9.70312C2.32813 9.71875 2.45703 9.73438 2.58984 9.75C2.72266 9.76562 2.85156 9.77344 2.97656 9.77344C3.16406 9.77344 3.34375 9.75781 3.51562 9.72656C3.6875 9.69531 3.85937 9.66406 4.03125 9.63281C3.10937 9.44531 2.33985 8.98438 1.72266 8.25C1.10547 7.51562 0.796875 6.65625 0.796875 5.67188V5.625C1.07813 5.76563 1.37109 5.88281 1.67578 5.97656C1.98047 6.07031 2.29687 6.125 2.625 6.14062C2.07812 5.78125 1.64063 5.30469 1.3125 4.71094C0.984373 4.11719 0.820312 3.47657 0.820312 2.78906C0.820312 2.41406 0.871093 2.05469 0.972656 1.71094C1.07422 1.36719 1.21094 1.04688 1.38281 0.75C1.88282 1.35938 2.4375 1.91406 3.04688 2.41406C3.65625 2.91406 4.3125 3.34375 5.01562 3.70312C5.71875 4.0625 6.46875 4.35156 7.26562 4.57031C8.04688 4.78906 8.85156 4.92188 9.67969 4.96875C9.64844 4.8125 9.625 4.65625 9.60938 4.5C9.59375 4.34375 9.58594 4.1875 9.58594 4.03125C9.58594 2.92187 9.97656 1.97266 10.7578 1.18359C11.5391 0.394527 12.4922 0 13.6172 0C14.1953 0 14.7383 0.117186 15.2461 0.351562C15.7539 0.585939 16.1875 0.898436 16.5469 1.28906C17.0156 1.19531 17.4648 1.06641 17.8945 0.902344C18.3242 0.73828 18.7266 0.539064 19.1016 0.304688C18.9609 0.77344 18.7383 1.19922 18.4336 1.58203C18.1289 1.96485 17.7656 2.28125 17.3438 2.53125C17.75 2.48438 18.1484 2.40625 18.5391 2.29688C18.9297 2.1875 19.3047 2.05469 19.6641 1.89844C19.3828 2.30469 19.0742 2.68359 18.7383 3.03516C18.4023 3.38672 18.0391 3.70312 17.6484 3.98438Z" fill="#FAFFAF"/>
</svg>
