<svg width="20" height="20" viewBox="0 0 20 20" fill="none" xmlns="http://www.w3.org/2000/svg">
<path d="M9.46946 0.0101352C8.14133 0.0726362 6.89915 0.37732 5.7429 0.924198C4.60227 1.47108 3.60228 2.19373 2.7429 3.09217C1.88352 3.99061 1.21165 5.02575 0.727273 6.19764C0.22727 7.36952 -0.0149148 8.61169 0.000710234 9.9242C0.000710234 10.7367 0.0983662 11.5258 0.293679 12.2914C0.488992 13.057 0.758521 13.7758 1.10227 14.4476L1.07884 14.4008L0.0241482 19.4867C0.0241482 19.5023 0.0241482 19.5179 0.0241482 19.5336C0.0241482 19.5492 0.0241482 19.5648 0.0241482 19.5804C0.0241482 19.6898 0.0593042 19.7797 0.129616 19.85C0.199929 19.9203 0.289772 19.9554 0.399148 19.9554C0.414773 19.9554 0.430398 19.9554 0.446023 19.9554C0.461648 19.9554 0.477273 19.9554 0.492898 19.9554L5.53196 18.7601C6.15696 19.0726 6.82883 19.3226 7.54759 19.5101C8.26634 19.6976 9.01633 19.7914 9.79758 19.7914H9.82102C11.1648 19.8226 12.446 19.5883 13.6648 19.0883C14.8679 18.6039 15.9265 17.9281 16.8406 17.0609C17.7546 16.1937 18.4851 15.1742 19.032 14.0023C19.5945 12.8304 19.8913 11.5726 19.9226 10.2289C19.9695 8.77575 19.7273 7.41639 19.196 6.15076C18.6648 4.88513 17.9226 3.78358 16.9695 2.84607C16.0163 1.90857 14.8913 1.18983 13.5945 0.689823C12.3132 0.174195 10.9382 -0.0523648 9.46946 0.0101352ZM15.4929 15.3851C14.7898 16.0883 13.9656 16.6429 13.0202 17.0492C12.0749 17.4555 11.0632 17.6586 9.98508 17.6586C9.98508 17.6586 9.98118 17.6586 9.97337 17.6586C9.96555 17.6586 9.96165 17.6586 9.96165 17.6586C9.96165 17.6586 9.95774 17.6586 9.94993 17.6586C9.94212 17.6586 9.93821 17.6586 9.93821 17.6586C9.31321 17.6586 8.70774 17.5844 8.1218 17.4359C7.53586 17.2875 6.97727 17.0805 6.44602 16.8148L6.4929 16.8383L5.78977 16.4867L2.69602 17.2133L3.35227 14.0961L3.00071 13.4164C2.73508 12.9164 2.52806 12.3695 2.37962 11.7758C2.23118 11.182 2.15696 10.5648 2.15696 9.9242C2.15696 9.9242 2.15696 9.92029 2.15696 9.91248C2.15696 9.90467 2.15696 9.90076 2.15696 9.90076C2.15696 8.8695 2.35227 7.88123 2.7429 6.93592C3.13353 5.9906 3.70383 5.15076 4.45384 4.41639C5.15696 3.71326 5.98117 3.15858 6.92649 2.75232C7.87181 2.34607 8.88352 2.14295 9.96165 2.14295C11.0085 2.14295 12.0046 2.33826 12.9499 2.72889C13.8952 3.11951 14.7429 3.68201 15.4929 4.41639C16.196 5.11951 16.7507 5.93982 17.157 6.87732C17.5632 7.81483 17.7663 8.81482 17.7663 9.87732C17.7663 9.89295 17.7663 9.90076 17.7663 9.90076C17.7663 10.932 17.5671 11.9203 17.1687 12.8656C16.7702 13.8109 16.2117 14.6508 15.4929 15.3851ZM14.8132 12.057L12.8679 11.4945C12.8366 11.4945 12.8054 11.4906 12.7741 11.4828C12.7429 11.475 12.7116 11.4711 12.6804 11.4711C12.571 11.4711 12.4734 11.4906 12.3874 11.5297C12.3015 11.5687 12.2273 11.6195 12.1648 11.682L11.696 12.1508C11.6335 12.2289 11.5554 12.2836 11.4616 12.3148C11.3679 12.3461 11.2741 12.3617 11.1804 12.3617C11.1335 12.3617 11.0866 12.3578 11.0398 12.35C10.9929 12.3422 10.9538 12.3304 10.9226 12.3148C10.4695 12.1429 9.864 11.7211 9.10618 11.0492C8.34836 10.3773 7.84446 9.83045 7.59446 9.40857C7.56321 9.3617 7.53977 9.30701 7.52415 9.24451C7.50852 9.18201 7.50071 9.11951 7.50071 9.05701C7.50071 8.97888 7.51634 8.90467 7.54759 8.83435C7.57884 8.76404 7.6179 8.69764 7.66477 8.63513H7.64134L8.06321 8.09607C8.11008 8.0492 8.14524 7.9867 8.16868 7.90857C8.19212 7.83045 8.20383 7.75232 8.20383 7.6742C8.20383 7.6117 8.19993 7.55701 8.19212 7.51014C8.1843 7.46326 8.17258 7.41639 8.15696 7.36951L7.33665 5.56482C7.27415 5.4242 7.1843 5.31482 7.06712 5.2367C6.94993 5.15857 6.82102 5.11951 6.6804 5.11951C6.58665 5.11951 6.50071 5.13514 6.42259 5.16639C6.34446 5.19764 6.27415 5.24451 6.21165 5.30701C5.94602 5.52576 5.6804 5.7992 5.41477 6.12732C5.14915 6.45545 5.00071 6.81482 4.96946 7.20545C4.89134 7.87733 5.03587 8.63513 5.40305 9.47888C5.77024 10.3226 6.5007 11.2523 7.59446 12.2679C8.86009 13.4398 9.99289 14.1625 10.9929 14.4359C11.9929 14.7094 12.821 14.7679 13.4773 14.6117C13.8523 14.5179 14.1882 14.3187 14.4851 14.014C14.782 13.7094 15.0241 13.4086 15.2116 13.1117C15.2429 13.0648 15.2702 13.0062 15.2937 12.9359C15.3171 12.8656 15.3288 12.7992 15.3288 12.7367C15.3288 12.5648 15.2781 12.4164 15.1765 12.2914C15.0749 12.1664 14.9538 12.0883 14.8132 12.057Z" fill="#FAFFAF"/>
</svg>
