<svg width="20" height="20" viewBox="0 0 20 20" fill="none" xmlns="http://www.w3.org/2000/svg">
<g clip-path="url(#clip0)">
<path d="M19.9688 11.6953C19.9688 10.6953 19.8438 9.83594 19.5938 9.11719C19.3437 8.38281 19 7.77735 18.5625 7.30078C18.125 6.82422 17.6016 6.46875 16.9922 6.23438C16.3984 6.01562 15.75 5.90625 15.0469 5.90625C13.9062 5.90625 13.0469 6.14844 12.4688 6.63281C11.8906 7.11719 11.4609 7.57812 11.1797 8.01562V8.0625H11.1562L11.1797 8.01562V6.1875H6.91406C6.92969 6.5 6.9375 7.34374 6.9375 8.71875C6.9375 10.0938 6.93359 11.5469 6.92578 13.0781C6.91797 14.6094 6.91406 15.9922 6.91406 17.2266C6.91406 18.4609 6.91406 19.0781 6.91406 19.0781H11.1797V11.8828C11.1797 11.6953 11.1914 11.5078 11.2148 11.3203C11.2383 11.1328 11.2734 10.9688 11.3203 10.8281C11.4766 10.4531 11.7344 10.1016 12.0938 9.77344C12.4531 9.44531 12.9297 9.28125 13.5234 9.28125C14.2891 9.28125 14.8398 9.54687 15.1758 10.0781C15.5117 10.6094 15.6797 11.3125 15.6797 12.1875V19.0781H19.9688V11.6953ZM2.4375 0C1.70312 0 1.11328 0.210935 0.667969 0.632812C0.222654 1.05469 0 1.58593 0 2.22656C0 2.83594 0.214842 3.35937 0.644531 3.79688C1.07422 4.23438 1.64843 4.45312 2.36719 4.45312H2.39062C3.14063 4.45312 3.73437 4.23438 4.17188 3.79688C4.60938 3.35937 4.82812 2.83594 4.82812 2.22656C4.8125 1.58593 4.59375 1.05469 4.17188 0.632812C3.75 0.210935 3.17188 0 2.4375 0ZM0.257812 19.0781H4.54688V6.1875H0.257812V19.0781Z" fill="#FAFFAF"/>
</g>
<defs>
<clipPath id="clip0">
<rect width="19.9688" height="19.0781" fill="white"/>
</clipPath>
</defs>
</svg>
