<svg width="19" height="19" viewBox="0 0 19 19" fill="none" xmlns="http://www.w3.org/2000/svg">
<g clip-path="url(#clip0)">
<path d="M4.38281 2.20312C4.38281 2.79688 4.16797 3.30859 3.73828 3.73828C3.30859 4.16797 2.79688 4.38281 2.20312 4.38281C1.59375 4.38281 1.07422 4.16797 0.644531 3.73828C0.214842 3.30859 0 2.79688 0 2.20312C0 1.59375 0.214842 1.07422 0.644531 0.644531C1.07422 0.214842 1.59375 0 2.20312 0C2.79688 0 3.30859 0.214842 3.73828 0.644531C4.16797 1.07422 4.38281 1.59375 4.38281 2.20312ZM10.0547 6.04688V7.71094H10.125C10.375 7.22656 10.8008 6.77735 11.4023 6.36328C12.0039 5.94922 12.7656 5.74219 13.6875 5.74219C15.5938 5.74219 16.8242 6.29687 17.3789 7.40625C17.9336 8.51563 18.2109 9.89062 18.2109 11.5312V18.1875H14.4375V12.2812C14.4375 11.5781 14.3516 10.8672 14.1797 10.1484C14.0078 9.42968 13.4375 9.07031 12.4688 9.07031C11.5 9.07031 10.8828 9.39062 10.6172 10.0312C10.3516 10.6719 10.2188 11.3906 10.2188 12.1875V18.1875H6.44531V6.04688H10.0547ZM0.304688 6.04688H4.07812V18.1875H0.304688V6.04688Z" fill="#faffaf"/>
</g>
<defs>
<clipPath id="clip0">
<rect width="18.2109" height="18.1875" fill="white"/>
</clipPath>
</defs>
</svg>
