<svg width="24" height="18" viewBox="0 0 24 18" fill="none" xmlns="http://www.w3.org/2000/svg">
<path d="M22.5 0H1.5C1.09375 0 0.742189 0.148436 0.445312 0.445312C0.148436 0.742189 0 1.09375 0 1.5V16.5C0 16.9063 0.148436 17.2578 0.445312 17.5547C0.742189 17.8516 1.09375 18 1.5 18H22.5C22.9063 18 23.2578 17.8516 23.5547 17.5547C23.8516 17.2578 24 16.9063 24 16.5V1.5C24 1.09375 23.8516 0.742189 23.5547 0.445312C23.2578 0.148436 22.9063 0 22.5 0ZM8.53125 10.5469L12 12.8906L15.4688 10.5469L21.4219 16.5H2.57812L8.53125 10.5469ZM1.5 15.4219V5.76562L7.26562 9.70312L1.5 15.4219ZM16.7344 9.65625L22.5 5.67188V15.4219L16.7344 9.65625ZM22.5 1.5V3.9375L22.4531 3.89062L12 11.1094L1.5 3.9375V1.5H22.5Z" fill="#FAFFAF"/>
</svg>
