<svg width="42" height="40" viewBox="0 0 42 40" fill="none" xmlns="http://www.w3.org/2000/svg">
<path d="M30.3201 23.4879C30.1953 23.4483 30.0634 23.4321 29.932 23.4403C29.8006 23.4485 29.6721 23.4809 29.5541 23.5356C29.4361 23.5903 29.3308 23.6662 29.2443 23.7591C29.1578 23.8519 29.0918 23.9598 29.0501 24.0766C28.425 25.5826 27.3147 26.8699 25.8725 27.7605C24.4304 28.6511 22.7277 29.1009 21.0001 29.0478C19.2808 29.0911 17.5892 28.6367 16.1571 27.7467C14.7249 26.8568 13.6222 25.5749 13.0001 24.0766C12.9152 23.8411 12.7337 23.6468 12.4955 23.5364C12.2574 23.426 11.982 23.4085 11.7301 23.4879C11.4781 23.5672 11.2702 23.7367 11.152 23.9593C11.0339 24.1819 11.0152 24.4392 11.1001 24.6746C11.8761 26.5317 13.2392 28.1239 15.0078 29.239C16.7764 30.3541 18.8666 30.9393 21.0001 30.9167C23.1504 30.9585 25.2626 30.3823 27.0511 29.2659C28.8396 28.1495 30.218 26.5469 31.0001 24.6746C31.0414 24.555 31.0565 24.4289 31.0445 24.3037C31.0325 24.1785 30.9936 24.0569 30.9301 23.9461C30.8666 23.8353 30.7799 23.7376 30.6751 23.6589C30.5702 23.5801 30.4495 23.522 30.3201 23.4879Z" fill="#faffaf"/>
<path d="M21 0.0800781C16.8466 0.0800781 12.7865 1.23097 9.33303 3.3872C5.8796 5.54344 3.18798 8.60818 1.59854 12.1939C0.00909889 15.7796 -0.406771 19.7252 0.403519 23.5317C1.21381 27.3383 3.21386 30.8348 6.15077 33.5792C9.08767 36.3235 12.8295 38.1925 16.9031 38.9497C20.9767 39.7068 25.1991 39.3182 29.0364 37.833C32.8736 36.3477 36.1534 33.8326 38.4609 30.6055C40.7684 27.3785 42 23.5845 42 19.7034C42 14.499 39.7875 9.5077 35.8493 5.82761C31.911 2.14753 26.5696 0.0800781 21 0.0800781ZM21 37.4578C17.2422 37.4578 13.5687 36.4165 10.4442 34.4657C7.31964 32.5148 4.88436 29.7419 3.4463 26.4977C2.00823 23.2535 1.63197 19.6837 2.36509 16.2397C3.09821 12.7957 4.90778 9.63212 7.56498 7.14912C10.2222 4.66612 13.6077 2.97517 17.2933 2.29011C20.9789 1.60505 24.7992 1.95665 28.271 3.30044C31.7428 4.64423 34.7102 6.91986 36.7979 9.83956C38.8857 12.7593 40 16.1919 40 19.7034C40 24.4122 37.9982 28.9281 34.435 32.2577C30.8718 35.5873 26.0391 37.4578 21 37.4578Z" fill="#faffaf"/>
<path d="M13.5 13.1623C14.88 13.1623 16 14.6948 16 15.9656C16 16.2135 16.1054 16.4512 16.2929 16.6264C16.4804 16.8016 16.7348 16.9001 17 16.9001C17.2652 16.9001 17.5196 16.8016 17.7071 16.6264C17.8946 16.4512 18 16.2135 18 15.9656C18 13.7604 16.08 11.2935 13.5 11.2935C10.92 11.2935 9 13.7604 9 15.9656C9 16.2135 9.10536 16.4512 9.29289 16.6264C9.48043 16.8016 9.73478 16.9001 10 16.9001C10.2652 16.9001 10.5196 16.8016 10.7071 16.6264C10.8946 16.4512 11 16.2135 11 15.9656C11 14.6948 12.12 13.1623 13.5 13.1623Z" fill="#faffaf"/>
<path d="M28.5 11.2935C25.92 11.2935 24 13.7604 24 15.9656C24 16.2135 24.1054 16.4512 24.2929 16.6264C24.4804 16.8016 24.7348 16.9001 25 16.9001C25.2652 16.9001 25.5196 16.8016 25.7071 16.6264C25.8946 16.4512 26 16.2135 26 15.9656C26 14.6948 27.12 13.1623 28.5 13.1623C29.88 13.1623 31 14.6948 31 15.9656C31 16.2135 31.1054 16.4512 31.2929 16.6264C31.4804 16.8016 31.7348 16.9001 32 16.9001C32.2652 16.9001 32.5196 16.8016 32.7071 16.6264C32.8946 16.4512 33 16.2135 33 15.9656C33 13.7604 31.08 11.2935 28.5 11.2935Z" fill="#faffaf"/>
</svg>
